/* XPM */
static char *_fe9e5df4b7040abb54ea625a946ff7e[] = {
/* columns rows colors chars-per-pixel */
"32 32 189 2 ",
"   c black",
".  c #000100",
"X  c #010101",
"o  c #010201",
"O  c #010202",
"+  c #020202",
"@  c #030202",
"#  c gray1",
"$  c #040301",
"%  c #030403",
"&  c #040304",
"*  c #040404",
"=  c gray2",
"-  c #070505",
";  c #060606",
":  c #070707",
">  c #080501",
",  c #090604",
"<  c #0B0A07",
"1  c #06070A",
"2  c #070A0C",
"3  c gray3",
"4  c #0A080A",
"5  c #090B0B",
"6  c #0B0B0B",
"7  c #0E0B0A",
"8  c #0B0C0C",
"9  c #0C0C0D",
"0  c gray5",
"q  c #0E0E0E",
"w  c gray6",
"e  c #140F0C",
"r  c #000611",
"t  c #0E0F12",
"y  c #100D14",
"u  c #0F1010",
"i  c #0E1214",
"p  c #101110",
"a  c #111111",
"s  c #111313",
"d  c gray7",
"f  c #131314",
"g  c gray8",
"h  c #141515",
"j  c #151515",
"k  c #161614",
"l  c #151516",
"z  c #161616",
"x  c #161717",
"c  c gray9",
"v  c #181612",
"b  c #181817",
"n  c #191A1A",
"m  c #1B1B1B",
"M  c #1A1B1C",
"N  c #1B1C1C",
"B  c gray11",
"V  c #32281F",
"C  c #161A23",
"Z  c #181F2F",
"A  c #1F2D36",
"S  c #202020",
"D  c gray13",
"F  c #222222",
"G  c #222323",
"H  c gray14",
"J  c #242525",
"K  c #262627",
"L  c #282929",
"P  c gray16",
"I  c #2C2D2D",
"U  c #382D21",
"Y  c #36352F",
"T  c #2E2D3E",
"R  c gray19",
"E  c #323333",
"W  c #343434",
"Q  c #343535",
"!  c #343636",
"~  c #3F3B34",
"^  c #383939",
"/  c #3C3D3D",
"(  c #3E3F3F",
")  c #443734",
"_  c #54423A",
"`  c #5D503C",
"'  c #6E593F",
"]  c #342C44",
"[  c #503E41",
"{  c #3D4748",
"}  c #374F60",
"|  c #3C576B",
" . c #3E596F",
".. c gray26",
"X. c #424343",
"o. c #434444",
"O. c #434545",
"+. c #454646",
"@. c #464646",
"#. c #464747",
"$. c #474848",
"%. c #484848",
"&. c #494A4A",
"*. c gray29",
"=. c #4C4D4C",
"-. c #4C4D4D",
";. c gray30",
":. c #4D4E4E",
">. c gray31",
",. c #5C5448",
"<. c #404952",
"1. c #414B57",
"2. c #475157",
"3. c #4F5050",
"4. c #4F5B5D",
"5. c #505151",
"6. c #545350",
"7. c #545555",
"8. c #565A57",
"9. c #575858",
"0. c #585959",
"q. c #5A5B5B",
"w. c #5B5C5C",
"e. c #5D5E5E",
"r. c #5E5F5F",
"t. c #605041",
"y. c #675842",
"u. c #795D46",
"i. c #685C5B",
"p. c #76664C",
"a. c #4E5A65",
"s. c #675D67",
"d. c #5F6060",
"f. c #59606B",
"g. c #616261",
"h. c #636463",
"j. c #646565",
"k. c #666767",
"l. c #616B6F",
"z. c #686969",
"x. c #696A6A",
"c. c #6B6C6C",
"v. c #7C7065",
"b. c #776D7E",
"n. c #6E737E",
"m. c gray44",
"M. c #7E7B78",
"N. c #7C7D7D",
"B. c #817673",
"V. c #8E826D",
"C. c #767882",
"Z. c #797D80",
"A. c #877F83",
"S. c #7F8181",
"D. c #7D868B",
"F. c #7C8D90",
"G. c #7E9398",
"H. c #778CA1",
"J. c #818282",
"K. c #828383",
"L. c #838484",
"P. c #84868C",
"I. c #8F8C8C",
"U. c #968D89",
"Y. c #989A8F",
"T. c #8B8990",
"R. c #9A9495",
"E. c #939992",
"W. c #989894",
"Q. c #95929B",
"!. c #91979A",
"~. c #90929C",
"^. c #A59A96",
"/. c #A89891",
"(. c #AD9D90",
"). c #B6A08C",
"_. c #9E9FA4",
"`. c #9BAAB1",
"'. c #A9A8A3",
"]. c #ADAAA2",
"[. c #AAABA8",
"{. c #A3ADB1",
"}. c #A3B2BD",
"|. c #A9B5BA",
" X c #B3B4B0",
".X c #AFBAC8",
"XX c #C1CAC5",
"oX c #C4CECF",
"OX c #CDD3D7",
/* pixels */
"                                                                ",
"                                                                ",
"                                                                ",
"          * w 3                                 * 3             ",
"          w :.=.%             E b       % *     &.&.            ",
"            9.J.f           B J.q.%       %   F S.5.            ",
"            #.k.&.          3.&.k.H       % w k.X.X.            ",
"            X.L z.B       b z.w I r.*       &.:.c o.            ",
"            o.f ( q.@     &.#.  * d.I     P z.w z X.            ",
"            o.z 3 c.H   f z.f   * P k.* f z.K   z o.            ",
"            o.z   ! g.* o.:.  # f * q.^ :.$.    z o.            ",
"            o.z   * r.o.z.M     w * F N.k.8     z o.            ",
"            o.z     H L.7.          * ! b       z X.            ",
"            o.z       ! b                       z #.            ",
"            o.z                                 z X.            ",
"            o.z                                 z X.            ",
"            X.z                                 b #.            ",
"            #.z                                 b #.            ",
"            ( f                                 z (             ",
"            3 @                                   3             ",
"                                                                ",
"                                                                ",
"                                                                ",
"                                                                ",
"            2 7 1 c M S v   C Y e f * s , i z > 3 <             ",
"            } B.n.K.'.m.W.6.!.D.I.P.[ {.t.G.|.u.4.`             ",
"            | OX).]  XS._.R.p.r H.(.E.}.Q.U.`.[.Y.y.@           ",
"             ./.T.b.].l.^.C.V.T ~.s.XXi..Xv.F.a.oXy.            ",
"            A ) Z g.,.3 <.) f.M._ y 8.z 2.V O.i 1.U             ",
"                              @                                 ",
"                                                                ",
"                                                                "
};
