/* XPM */
static char *_cd13ba48c4a4a70b34cc73e439115f1[] = {
/* columns rows colors chars-per-pixel */
"64 64 228 2 ",
"   c black",
".  c #000100",
"X  c #232323",
"o  c #0E0E0E",
"O  c #2D2D2E",
"+  c #ACAEAE",
"@  c gray15",
"#  c #2D2F2D",
"$  c #040504",
"%  c #1C1D1D",
"&  c gray20",
"*  c #1E1F1F",
"=  c #ABADAD",
"-  c gray14",
";  c #020202",
":  c #111212",
">  c #9FA1A1",
",  c #4A4B4B",
"<  c #010001",
"1  c gray2",
"2  c #A6A8A8",
"3  c #8C8D8D",
"4  c #131313",
"5  c gray24",
"6  c #343535",
"7  c #040404",
"8  c #070707",
"9  c #424343",
"0  c #2D2E2E",
"q  c #666667",
"w  c #A0A2A2",
"e  c #A1A2A2",
"r  c #020302",
"t  c gray4",
"y  c #7B7C7C",
"u  c #010101",
"i  c #696A6A",
"p  c #0B0B0B",
"a  c #3C3D3D",
"s  c gray5",
"d  c #464747",
"f  c #8A8B8B",
"g  c #535454",
"h  c #1A1B1B",
"j  c #414242",
"k  c gray7",
"l  c gray1",
"z  c #4F5050",
"x  c #070607",
"c  c #5C5D5D",
"v  c #666767",
"b  c #030403",
"n  c #060606",
"m  c #777979",
"M  c #737474",
"N  c #2E302F",
"B  c #636464",
"V  c #060706",
"C  c #202020",
"Z  c #050606",
"A  c #939494",
"S  c #111111",
"D  c #464847",
"F  c #0E0D0E",
"G  c #0D0E0E",
"H  c #656666",
"J  c #080909",
"K  c #1E1E1E",
"L  c #676868",
"P  c #131414",
"I  c #313131",
"U  c #181818",
"Y  c #8E9090",
"T  c #434444",
"R  c #393A3A",
"E  c gray3",
"W  c gray10",
"Q  c #00002D",
"!  c #4E5C5C",
"~  c #402D00",
"^  c #4E91D2",
"/  c #FFFBCD",
"(  c #4E0000",
")  c #5C91C7",
"_  c #FFFFFB",
"`  c #BD896C",
"'  c #C7EEFF",
"]  c gray100",
"[  c #D2A570",
"{  c #669FC7",
"}  c #FBFFFF",
"|  c #EED7B1",
" . c #FFF3C2",
".. c #400000",
"X. c #82BDEA",
"o. c #FFFFE5",
"O. c #822D00",
"+. c #4089CD",
"@. c #FFF7C7",
"#. c #6391CD",
"$. c #FFFFF7",
"%. c #A55C00",
"&. c #97D7F3",
"*. c #D79F5C",
"=. c #FFFFD2",
"-. c #4E91C7",
";. c #BD894E",
":. c #00004E",
">. c #CDFBFF",
",. c #DC9F66",
"<. c #6697CD",
"1. c #FFFFEA",
"2. c #2D82C2",
"3. c #BD895C",
"4. c #004079",
"5. c #D7FBFF",
"6. c #F3C791",
"7. c #004097",
"8. c #F3FFEE",
"9. c #892D00",
"0. c #C78940",
"q. c #89CDF3",
"w. c #F3C789",
"e. c #4E91CD",
"r. c #FFF3CD",
"t. c #DC9F5C",
"y. c #4E97D2",
"u. c #FFF7CD",
"i. c #8289C2",
"p. c #B77940",
"a. c #D2FBFF",
"s. c #D29140",
"d. c #005CAB",
"f. c #974000",
"g. c #ABE5FF",
"h. c #EEBD79",
"j. c #0066B1",
"k. c #FFFFEE",
"l. c #892D40",
"z. c #C7F3FB",
"x. c #C28200",
"c. c #00409F",
"v. c #F3FBD7",
"b. c #A5BDE5",
"n. c #F7D797",
"m. c #C7F7FB",
"M. c #BD792D",
"N. c #F3DCC2",
"B. c #D7F7FF",
"V. c #FFFFE1",
"C. c #CDF3FF",
"Z. c #FFF7F3",
"A. c #EEEEF3",
"S. c #F3F3F7",
"D. c #FBFBF7",
"F. c #D2B182",
"G. c #00005C",
"H. c #D7FFFF",
"J. c #D7974E",
"K. c #002D82",
"L. c #EAFFF7",
"P. c #A54E00",
"I. c #82C2EE",
"U. c #EAB770",
"Y. c #4E97DC",
"T. c #FBDC97",
"R. c #0040A5",
"E. c #FBFBD2",
"W. c #4E2D89",
"Q. c #EEFFE1",
"!. c #700000",
"~. c #4E97D7",
"^. c #F7D791",
"/. c #004EA5",
"(. c #B7662D",
"). c #89D2F3",
"_. c #894000",
"`. c #91CDF3",
"'. c #DCA570",
"]. c #002D4E",
"[. c #9FC7EA",
"{. c #FFFBD2",
"}. c #660000",
"|. c #B7EEFF",
" X c #E1A55C",
".X c #FBFFF7",
"XX c #2D79BD",
"oX c #F3E5BD",
"OX c #B7DCF3",
"+X c #D2974E",
"@X c #D7F7EE",
"#X c #BDB1D2",
"$X c #F3E1A5",
"%X c #F7DC9F",
"&X c #70B1E1",
"*X c #FFFBDC",
"=X c #C2DCEE",
"-X c #C7F3FF",
";X c #FBDCA5",
":X c #D7975C",
">X c #ABE1FF",
",X c #FFEAB7",
"<X c #2D0000",
"1X c #5C9FD2",
"2X c #975C2D",
"3X c #B7E1FF",
"4X c #FFE5B1",
"5X c #000070",
"6X c #DCFBFF",
"7X c #89C7EA",
"8X c #D2975C",
"9X c #B1E1FF",
"0X c #004089",
"qX c #EAFFFF",
"wX c #E1AB84",
"eX c #E5FFFF",
"rX c #E1AB70",
"tX c #79ABD2",
"yX c #FBF7F7",
"uX c #F3DCB7",
"iX c #5C0000",
"pX c #A5DCFF",
"aX c #FFE5AB",
"sX c #FFFFF3",
"dX c #914000",
"fX c #F3DC9F",
"gX c #E1FFFF",
"hX c #4E4E4E",
/* pixels */
"                                                                                                                                ",
"                                                                                                                                ",
"                                                                                                                                ",
"                                                                                                                                ",
"                                                        .                                                                       ",
"                                                        .                                                                       ",
"                          X                             .                                                                       ",
"                      o       o                     .   .                                                                       ",
"                      O   + @ # .                   .   .                         $ %             & +                           ",
"                      O   + + # .                   .       * = -                 .   ;         : + +                           ",
"                      o   > + , .                   .     < + + +                 .   1         2 + +                           ",
"                        o + 3 + .                   .     4 + 5 + 6             7 .   8       9 + @ +                           ",
"                          + 0 + q                   .     w + . e +             r .   7     t + y   +                           ",
"                          + u i + 1               . <   p + a . s + d         u .           + +     +                           ",
"                          +   s + 3               .     3 +       f +         u .         g + h     +                           ",
"                          +   u j + k             < l 1 + z       x + c       . <       k + v       +                           ",
"                          +       + +           b n ; m +       u   M + u   7 .         + +         +                           ",
"                          +       N + @         .   u + B <   <   < u + M . l .       v + k         +                           ",
"                          +       < + +         .   B + u       u     c + V u <     h + g           +                           ",
"                          +         C + j     . .   + m         8 1 <   + f         + + <           +                           ",
"                          +         Z A +     .   z + 1         @ S     D + F     y + t             +                           ",
"                          +           G + H l .   + 3           J K     . + e   @ + 9     u         +                           ",
"                          +             L + P . a + p             I ; <   6 + U + 2                 +                           ",
"                          +               + Y . + w               C l     < + + + 1                 +                           ",
"                          +               T + R + 4                 E   u   - = &                   +                           ",
"                          +                 + + +                   1                               +                           ",
"                          +             u   @ = *                   u                               +                           ",
"                          +                                                                         +                           ",
"                          +                                                                         +                           ",
"                          +                                                                         +                           ",
"                          +                                                                         +                           ",
"                          +                                                                         +                           ",
"                          +                                                                         +                           ",
"                          +                                                                         +                           ",
"                          +                                                                       W +                           ",
"                          +                                                                       s +                           ",
"                          +                                                                       u +                           ",
"                          +                                                                         +                           ",
"                                                                                                                                ",
"                                                                                                                                ",
"                                                                                                                                ",
"                                                                                                                                ",
"                                                                                                                                ",
"                                                                                                                                ",
"                                                                                                                                ",
"                                                                                                                                ",
"                                                                                                                                ",
"                                                                                                                                ",
"                                                                                                                                ",
"                                                          Q ! ~                                                                 ",
"                          ^ / (   ) _ ` ' ] ] ] _ [     { } ] ] | ( ^  ...  X.o.O.  +.@.#.$.%.    &.*.                          ",
"                          ^ =...-.] ;.:.>.,.    <.1.O.2.] 3.  4.5.6.7.8.9.:.' ] 0.  q.w.e.] r.(   &.t.                          ",
"                          y.u.i.$.p.  :.a.s.    d.$.f.g.h.      j.k.l.z.x.c.v.b.n.Q m.M.y.N.B.w.  &.t.                          ",
"                          e.] ] V.O.  :.C.Z.A.S.D.F.G.H.J.      K.L.P.I.U.Y.T.R.E.W.Q.!.~.^./.] (.).t.                          ",
"                          ^ 1._.`.u.( :.>.'.].[.{.}.Q |. X      7..Xf.XXoXOX+XG.@X#X$X  ~.%X  &X*X=X*.                          ",
"                          ^ {.( :.-X;X:.a.:X    >X,X<X1X1.2X  :.3X4X<X5X6Xo.O.  7X] 8X  ~.%X  Q 9X] +X                          ",
"                          ^ / (   0XqXwX>.:X    K.eXrX  tX} yX} uXiX    pXaX    XXsXdX  ~.fX    K.gX8X                          ",
"                                                          Q hX~                                                                 ",
"                                                                                                                                ",
"                                                                                                                                ",
"                                                                                                                                ",
"                                                                                                                                ",
"                                                                                                                                ",
"                                                                                                                                "
};
